<?xml version="1.0" standalone="no"?>
<!DOCTYPE svg PUBLIC "-//W3C//DTD SVG 20010904//EN"
 "http://www.w3.org/TR/2001/REC-SVG-20010904/DTD/svg10.dtd">
<svg version="1.0" xmlns="http://www.w3.org/2000/svg"
 width="1024.000000pt" height="341.000000pt" viewBox="0 0 1024.000000 341.000000"
 preserveAspectRatio="xMidYMid meet">

<g transform="translate(0.000000,341.000000) scale(0.100000,-0.100000)"
fill="#000000" stroke="none">
<path d="M5304 2451 c-97 -44 -132 -172 -73 -267 40 -66 147 -85 225 -39 87
51 111 179 49 260 -48 64 -123 81 -201 46z"/>
<path d="M3522 2448 c-9 -9 -12 -74 -12 -230 0 -183 -2 -218 -14 -218 -8 0
-18 4 -21 10 -3 5 -38 19 -77 31 -141 43 -301 10 -403 -82 -119 -109 -178
-336 -146 -559 25 -169 79 -258 187 -311 58 -29 80 -34 160 -37 117 -5 205 19
281 77 l52 40 11 -38 c5 -21 16 -44 24 -50 9 -8 55 -11 137 -9 l124 3 -1 30
c0 17 -8 70 -17 119 -15 76 -17 170 -17 650 0 424 -3 565 -12 574 -8 8 -51 12
-128 12 -77 0 -120 -4 -128 -12z m-57 -673 l40 -20 0 -130 c-1 -159 -17 -216
-75 -269 -47 -42 -73 -50 -146 -44 -99 8 -139 71 -138 218 0 136 44 226 124
259 39 16 149 8 195 -14z"/>
<path d="M4852 2448 c-17 -17 -17 -1349 0 -1366 15 -15 235 -16 258 -2 13 8
15 95 15 685 0 590 -2 677 -15 685 -23 14 -243 13 -258 -2z"/>
<path d="M4208 2045 c-171 -43 -278 -154 -324 -335 -23 -90 -16 -282 14 -363
56 -155 180 -249 366 -278 165 -26 451 18 488 75 10 15 10 214 0 220 -4 2 -46
-7 -92 -22 -75 -22 -103 -26 -235 -26 -169 -1 -198 8 -242 74 -29 42 -29 54 0
46 12 -4 62 -12 110 -18 106 -14 229 -1 306 33 152 65 206 259 120 427 -39 76
-94 121 -186 154 -76 27 -244 34 -325 13z m222 -230 c59 -31 80 -105 41 -144
-40 -40 -154 -50 -279 -25 -32 6 -34 9 -28 38 9 45 56 108 96 128 43 22 131
23 170 3z"/>
<path d="M6850 2042 c-84 -22 -144 -58 -204 -121 -81 -88 -126 -219 -126 -371
0 -333 201 -504 569 -487 119 5 254 34 298 62 22 15 23 22 23 125 0 60 -4 111
-8 114 -5 3 -44 -7 -88 -21 -71 -24 -95 -27 -229 -27 -128 -1 -156 2 -188 18
-37 18 -96 90 -84 102 3 3 22 1 43 -5 127 -34 307 -21 410 29 101 49 144 126
144 256 0 175 -98 291 -277 329 -90 19 -203 18 -283 -3z m223 -221 c41 -16 67
-51 67 -91 0 -77 -59 -107 -192 -96 -129 11 -141 14 -133 45 12 50 56 111 93
131 40 21 124 26 165 11z"/>
<path d="M7979 2046 c-85 -30 -153 -96 -181 -176 -5 -17 -13 -30 -16 -30 -4 0
-7 38 -7 84 0 116 0 116 -144 116 -78 0 -121 -4 -129 -12 -17 -17 -17 -929 0
-946 17 -17 238 -16 260 1 14 10 17 45 21 217 5 229 18 293 78 384 51 76 158
135 178 98 5 -9 75 -192 156 -405 165 -435 159 -404 84 -472 -45 -40 -107 -59
-168 -51 -66 9 -71 0 -71 -119 0 -83 3 -105 17 -116 11 -10 48 -14 132 -14
107 0 121 2 179 29 78 36 164 125 210 218 46 94 403 1128 400 1158 -3 25 -3
25 -123 28 -66 1 -130 0 -142 -3 -19 -4 -36 -47 -128 -331 -59 -179 -108 -324
-110 -322 -2 1 -51 145 -110 318 -58 173 -110 319 -115 324 -12 12 -135 35
-190 35 -25 0 -61 -6 -81 -13z"/>
<path d="M5242 2028 c-17 -17 -17 -929 0 -946 15 -15 235 -16 258 -2 23 14 23
936 0 950 -23 14 -243 13 -258 -2z"/>
<path d="M5581 2022 c-7 -13 32 -132 159 -482 l167 -465 161 -3 c146 -2 162
-1 170 15 5 10 82 222 172 470 135 376 161 455 150 468 -10 12 -38 15 -141 15
-122 0 -129 -1 -143 -22 -8 -13 -56 -164 -107 -335 -52 -172 -96 -309 -100
-305 -4 4 -49 148 -100 321 -52 173 -100 320 -107 328 -10 9 -48 13 -142 13
-113 0 -130 -2 -139 -18z"/>
<path d="M9145 2021 c-11 -5 -31 -21 -45 -36 -25 -26 -25 -29 -25 -201 l0
-174 33 -32 32 -33 220 0 220 0 32 33 33 32 0 175 0 175 -33 32 -32 33 -208 2
c-114 1 -216 -2 -227 -6z m196 -122 l49 1 0 -95 c0 -51 -4 -105 -10 -119 -21
-56 -123 -72 -164 -27 -17 18 -17 20 4 31 17 9 29 9 47 1 28 -13 63 1 63 24 0
11 -5 12 -26 5 -75 -29 -144 65 -103 141 11 22 68 51 83 42 4 -3 30 -5 57 -4z
m129 -11 c0 -9 3 -9 12 0 7 7 20 12 30 12 13 0 18 -8 18 -30 0 -22 -5 -30 -18
-30 -30 0 -42 -22 -42 -77 0 -52 0 -53 -30 -53 l-30 0 0 95 0 95 30 0 c17 0
30 -5 30 -12z"/>
<path d="M9250 1831 c-16 -31 4 -63 37 -59 34 4 52 32 37 56 -16 26 -60 28
-74 3z"/>
</g>
</svg>
