<?xml version="1.0" standalone="no"?>
<!DOCTYPE svg PUBLIC "-//W3C//DTD SVG 20010904//EN"
 "http://www.w3.org/TR/2001/REC-SVG-20010904/DTD/svg10.dtd">
<svg version="1.0" xmlns="http://www.w3.org/2000/svg"
 width="600.000000pt" height="600.000000pt" viewBox="0 0 600.000000 600.000000"
 preserveAspectRatio="xMidYMid meet">

<g transform="translate(0.000000,600.000000) scale(0.100000,-0.100000)"
fill="#000000" stroke="none">
<path d="M0 3000 l0 -3000 3000 0 3000 0 0 3000 0 3000 -3000 0 -3000 0 0
-3000z m4166 1225 c89 -39 142 -115 165 -235 7 -36 21 -75 30 -88 26 -35 14
-52 -36 -52 l-44 0 -16 -55 c-9 -33 -30 -71 -50 -94 -19 -21 -32 -41 -30 -45
3 -3 3 -4 -1 -2 -3 2 -27 -5 -55 -15 -31 -12 -75 -19 -119 -19 -69 0 -71 -1
-103 -37 -18 -20 -31 -41 -29 -46 1 -4 -1 -6 -6 -3 -5 3 -33 -19 -62 -49 l-54
-55 130 35 c165 43 181 49 189 74 16 52 97 78 143 45 12 -8 26 -13 30 -10 5 3
9 0 10 -7 0 -7 3 -21 7 -32 4 -13 -3 -33 -19 -57 l-24 -36 37 -91 c21 -50 41
-88 46 -84 4 5 5 3 1 -4 -4 -7 11 -66 34 -131 22 -65 40 -126 40 -134 0 -11
17 -22 53 -32 104 -30 211 -109 269 -198 17 -27 36 -48 41 -48 6 0 8 -3 4 -6
-3 -3 1 -25 10 -47 25 -69 32 -104 19 -104 -6 0 -43 -1 -83 -1 l-71 -2 21 -39
c12 -22 24 -38 27 -36 3 2 5 -34 4 -78 -2 -117 -47 -220 -133 -301 -16 -16
-27 -34 -24 -40 3 -6 3 -8 -2 -4 -4 4 -24 -5 -44 -21 -138 -108 -329 -131
-439 -52 -16 11 -33 17 -38 13 -5 -4 -6 -3 -2 2 4 5 -1 21 -11 35 -34 51 -43
88 -39 171 l3 80 -607 0 -606 0 -12 -35 c-6 -19 -31 -61 -55 -94 -24 -32 -42
-62 -39 -65 2 -3 1 -4 -3 -1 -11 8 -43 -27 -36 -39 3 -6 3 -8 -2 -4 -12 11
-47 -11 -39 -25 4 -7 4 -9 0 -5 -5 4 -38 -8 -75 -26 -154 -78 -292 -73 -384
13 -61 55 -89 153 -69 239 l10 42 -78 0 c-58 0 -79 4 -83 14 -7 17 14 90 42
143 11 22 18 43 16 47 -3 3 -2 4 1 2 9 -7 76 83 69 93 -2 5 3 8 13 7 11 -1 17
6 17 19 0 11 5 20 12 20 19 0 143 106 136 118 -3 6 -1 7 5 3 6 -4 34 8 62 27
l51 34 -33 14 c-18 8 -37 13 -41 11 -5 -1 -6 2 -3 7 4 5 2 13 -4 16 -20 13
-57 80 -68 127 -22 85 -47 78 276 78 281 0 289 -1 308 -21 58 -65 208 -115
487 -163 45 -8 47 -25 5 -49 -26 -15 -29 -20 -17 -29 11 -8 11 -9 -3 -4 -24 7
-154 -94 -136 -107 9 -6 8 -7 -5 -3 -12 4 -55 -23 -140 -89 -170 -133 -172
-134 -152 -154 14 -14 62 -16 371 -19 l355 -3 69 67 c38 37 67 71 64 76 -3 5
0 7 8 6 7 -2 12 3 10 10 -1 8 2 11 6 8 11 -7 212 222 300 343 96 129 100 141
107 277 3 66 8 129 11 142 2 12 0 22 -5 22 -5 0 -94 -30 -197 -66 -292 -103
-369 -120 -429 -92 -53 24 -39 79 49 192 25 32 43 64 39 70 -3 6 -2 8 2 3 11
-10 46 23 38 36 -3 5 -2 7 4 4 5 -3 25 10 44 30 l34 37 -33 -21 c-88 -53 -182
-125 -177 -134 4 -5 1 -8 -7 -7 -7 2 -12 -4 -10 -12 2 -8 0 -12 -3 -8 -11 11
-47 -11 -39 -24 4 -6 3 -8 -3 -5 -13 8 -36 -17 -25 -28 4 -5 2 -5 -5 -1 -7 4
-26 -12 -48 -41 -33 -43 -35 -48 -18 -55 10 -4 63 -24 118 -44 125 -45 260
-114 312 -159 22 -19 44 -31 48 -27 5 4 5 2 2 -4 -4 -6 -1 -25 6 -43 20 -54
-6 -85 -158 -185 -75 -49 -132 -93 -128 -99 3 -6 1 -7 -5 -3 -9 5 -122 -59
-122 -69 0 -1 34 -15 74 -29 41 -15 80 -33 85 -40 10 -12 12 -70 3 -61 -3 2
-16 -5 -30 -15 -23 -19 -41 -20 -253 -20 -233 0 -279 6 -279 37 1 29 27 55
170 168 74 59 135 112 135 119 1 6 7 10 14 8 18 -4 42 18 34 31 -3 5 -2 7 4 4
12 -8 55 21 48 33 -3 5 0 12 6 16 8 4 9 3 5 -4 -13 -21 8 -12 44 17 l35 29
-35 6 c-19 3 -57 8 -85 11 -143 18 -380 86 -473 135 -29 16 -59 27 -66 24 -8
-3 -16 1 -19 10 -10 26 0 132 16 163 9 17 13 34 9 38 -4 5 -1 5 6 1 11 -7 17
6 12 29 -1 6 2 7 6 3 4 -4 34 18 68 50 64 60 224 170 313 217 29 15 51 30 49
34 -3 4 3 7 12 8 9 0 76 26 148 57 71 30 174 68 227 83 76 21 97 31 97 45 0
11 -5 15 -14 12 -7 -3 -21 3 -30 12 -32 32 4 182 66 271 18 27 32 52 30 56 -1
5 2 6 7 3 5 -3 19 3 32 13 25 19 97 47 139 55 50 8 156 -6 206 -29z m-659
-215 c16 0 25 -8 29 -25 14 -54 10 -55 -347 -55 -201 0 -330 4 -334 10 -3 5
-7 24 -8 42 l-3 33 321 -3 c176 -1 330 -2 342 -2z m-832 -95 l25 -24 0 -354 0
-354 -26 -24 -26 -24 -316 -3 c-336 -3 -382 1 -404 41 -10 16 -14 102 -16 317
-4 342 0 393 33 426 l24 24 341 0 341 0 24 -25z m1810 -465 c13 -10 12 -16 -1
-41 -8 -16 -12 -34 -9 -40 4 -5 2 -8 -3 -7 -6 2 -29 -25 -51 -59 -27 -42 -45
-61 -55 -57 -22 8 -78 172 -66 193 5 10 6 21 2 25 -3 4 2 4 12 0 12 -4 17 -4
13 2 -8 14 141 -2 158 -16z m-2791 -223 c12 -9 17 -23 14 -42 l-3 -30 -329 -3
c-241 -2 -332 1 -343 10 -22 18 -12 61 17 69 14 4 160 7 326 8 232 1 304 -2
318 -12z m149 -387 c22 0 38 -39 25 -62 -8 -17 -35 -18 -337 -18 -354 0 -357
0 -349 52 l3 23 285 6 c157 3 301 4 320 2 19 -1 43 -3 53 -3z m-135 -444 c2
-16 0 -32 -5 -37 -11 -11 -640 -14 -666 -3 -20 7 -23 44 -5 62 9 9 94 12 343
10 l330 -3 3 -29z m587 -776 c22 -8 26 -15 23 -41 -3 -28 -7 -32 -35 -35 -24
-3 -33 0 -33 11 0 8 -4 15 -10 15 -22 0 -8 -30 20 -45 38 -19 39 -47 4 -101
-23 -36 -29 -39 -75 -42 -59 -4 -79 9 -79 49 0 26 3 29 35 29 24 0 35 -5 35
-15 0 -20 19 -19 27 1 7 18 -15 36 -35 29 -7 -3 -10 -1 -7 4 3 5 1 12 -5 16
-30 19 0 90 50 116 40 22 49 23 85 9z m2049 -25 l-5 -30 21 28 c16 20 30 27
56 27 19 0 34 -3 34 -6 0 -3 -13 -23 -30 -44 -16 -20 -26 -41 -22 -45 4 -5 2
-5 -5 -1 -14 7 -36 -27 -25 -39 4 -3 1 -5 -7 -3 -9 2 -20 -12 -30 -37 -23 -59
-29 -65 -62 -65 -33 0 -35 4 -14 53 9 22 15 68 15 114 l0 78 39 0 c38 0 39 -1
35 -30z m-2461 8 c-11 -33 -25 -43 -58 -43 -20 0 -35 -6 -38 -15 -5 -11 0 -13
22 -9 34 7 42 -2 30 -33 -6 -18 -16 -23 -43 -23 -33 0 -37 -4 -57 -50 -18 -43
-25 -50 -49 -50 -15 0 -34 8 -41 17 -12 14 -12 16 0 8 11 -6 13 -4 8 9 -4 10
-3 15 3 11 9 -6 14 10 13 42 -1 7 2 11 6 8 11 -6 33 63 25 76 -4 7 -3 9 4 5 6
-3 15 8 22 29 l12 35 73 0 c67 0 74 -2 68 -17z m186 5 c0 -7 -8 -60 -18 -118
l-17 -105 -38 -3 c-35 -3 -38 -1 -33 17 7 28 -28 29 -43 1 -11 -20 -63 -29
-74 -12 -2 4 28 58 67 120 l72 112 43 0 c27 0 42 -4 41 -12z m491 1 c0 -23
-22 -49 -41 -49 -22 0 -55 -62 -43 -82 4 -6 3 -8 -3 -5 -6 4 -14 -5 -18 -21
-12 -48 -33 -72 -65 -72 -17 0 -30 1 -30 3 0 2 15 43 34 90 31 80 33 87 15 87
-21 0 -22 4 -13 38 6 20 12 22 85 22 49 0 79 -4 79 -11z m348 -1 c7 -7 12 -21
12 -31 0 -37 -35 -119 -66 -155 -27 -32 -36 -36 -91 -40 -36 -2 -63 0 -67 6
-5 9 61 193 80 224 8 13 119 9 132 -4z m248 -10 c-3 -13 -6 -26 -6 -30 0 -5
-18 -8 -39 -8 -23 0 -41 -5 -44 -13 -4 -10 3 -12 25 -9 27 4 29 2 26 -24 -3
-26 -8 -30 -43 -34 -27 -3 -41 -10 -43 -22 -3 -15 4 -18 32 -18 41 0 40 0 24
-35 -10 -23 -16 -25 -78 -25 -37 0 -69 2 -72 5 -3 3 15 57 40 120 l45 115 70
0 c67 0 69 -1 63 -22z m154 17 c0 -2 -13 -41 -30 -87 -16 -45 -30 -83 -30 -85
0 -2 14 -3 30 -3 22 0 30 -5 30 -18 0 -31 -22 -42 -87 -42 l-63 0 3 34 c1 19
5 32 8 31 3 -2 20 36 39 86 33 88 34 89 67 89 18 0 33 -2 33 -5z m210 -2 c0
-15 -83 -209 -95 -222 -8 -8 -23 -11 -38 -7 l-25 6 46 115 c45 114 46 115 79
115 18 0 33 -3 33 -7z m130 -11 c0 -9 -4 -33 -10 -51 -15 -52 -7 -47 25 14 26
50 32 55 62 55 18 0 33 -3 33 -8 0 -4 -31 -57 -68 -117 l-68 -110 -39 0 c-46
0 -45 -8 -19 143 l16 92 34 0 c26 0 34 -4 34 -18z m320 7 c0 -31 -22 -49 -60
-49 -30 0 -40 -4 -40 -16 0 -12 7 -15 30 -12 31 5 36 -4 24 -36 -4 -11 -19
-16 -44 -16 -29 0 -39 -4 -43 -20 -4 -17 0 -20 29 -20 34 0 41 -10 28 -44 -5
-12 -21 -16 -75 -16 -59 0 -70 3 -80 21 -6 12 -7 19 -1 16 5 -4 22 26 37 66
60 152 46 137 125 137 43 0 70 -4 70 -11z m220 -4 c16 -19 6 -59 -21 -86 -11
-11 -17 -23 -15 -28 3 -4 -2 -31 -11 -60 -16 -49 -19 -52 -48 -49 -32 3 -32 5
-20 68 6 33 6 34 -10 15 -8 -11 -13 -25 -11 -32 3 -7 1 -13 -4 -13 -5 0 -12
-11 -16 -25 -5 -19 -10 -23 -19 -15 -6 5 -15 7 -18 4 -3 -4 -13 -4 -21 -1 -16
6 -15 8 49 170 l27 67 63 0 c43 0 66 -5 75 -15z"/>
<path d="M4307 2859 c-9 -6 -17 -16 -17 -23 0 -13 27 -23 150 -51 36 -8 75
-17 88 -21 35 -10 26 13 -15 39 -72 45 -175 73 -206 56z"/>
<path d="M2523 2790 c-75 -20 -295 -119 -307 -139 -7 -10 14 -6 39 8 6 3 17 7
25 8 83 17 301 81 290 86 -8 3 -3 4 11 1 14 -3 44 2 65 11 37 16 38 17 20 31
-26 18 -55 17 -143 -6z"/>
<path d="M4297 2419 c-15 -6 -25 -15 -22 -20 4 -5 0 -6 -8 -3 -8 3 -30 -11
-51 -32 -21 -21 -35 -43 -32 -51 3 -8 2 -12 -3 -9 -10 6 -21 -26 -21 -61 0
-12 12 -35 26 -52 21 -26 33 -31 69 -31 24 0 55 4 68 9 38 15 99 72 93 88 -3
8 -1 11 4 8 12 -8 30 37 30 75 0 64 -81 106 -153 79z"/>
<path d="M2240 2250 c0 -83 88 -117 179 -70 45 23 84 67 76 87 -2 8 -1 11 4 8
5 -3 12 -1 16 5 4 7 -42 10 -134 10 l-141 0 0 -40z"/>
<path d="M2022 3538 c3 -270 4 -293 21 -296 16 -3 17 16 17 292 0 290 0 296
-20 296 -20 0 -20 -5 -18 -292z"/>
<path d="M1976 1505 c-9 -26 -7 -32 5 -12 6 10 9 21 6 23 -2 3 -7 -2 -11 -11z"/>
<path d="M2821 1548 c-5 -13 -16 -41 -25 -62 -16 -39 -14 -59 3 -40 18 18 50
113 41 119 -6 4 -14 -4 -19 -17z"/>
<path d="M4096 1554 c-4 -9 -4 -19 -2 -21 8 -8 26 8 26 23 0 19 -16 18 -24 -2z"/>
</g>
</svg>
